<svg width="371" height="71" viewBox="0 0 371 71" fill="none" xmlns="http://www.w3.org/2000/svg">
<path d="M22.8214 60H36.1128L61 42.4667V13.3807L44.454 0L15.3767 23.4073V33.6291L21.886 38.882L29.1943 32.9725L25.6083 30.1154V26.1225L44.8243 10.6655L51.4505 16.0071V39.3434L22.8214 60Z" fill="url(#paint0_linear_938_100)"/>
<path d="M38.1396 0H24.8482L0 17.5333V46.6193L16.546 60L45.5844 36.5572V26.3532L39.0751 21.1003L31.8058 27.0098L35.3527 29.8669V33.8598L16.1367 49.3168L9.54952 44.0106V20.6211L38.1396 0Z" fill="url(#paint1_linear_938_100)"/>
<path d="M103.241 33.2831C102.992 32.5629 102.637 31.9377 102.175 31.407C101.855 31.028 101.34 30.5921 100.629 30.0993C99.8474 29.6824 99.1545 29.3603 98.5505 29.1329C98.9769 28.8675 99.4388 28.5643 99.9363 28.2232C100.434 27.7684 100.807 27.3325 101.056 26.9156C101.375 26.4608 101.642 25.9112 101.855 25.2669C102.068 24.5846 102.175 23.8456 102.175 23.0496C102.175 20.9271 101.429 19.2404 99.9362 17.9897C98.4439 16.739 96.4185 16.1136 93.8602 16.1136H84.0001V20.3207H93.3274C94.6776 20.3207 95.7791 20.6239 96.6319 21.2304C97.3781 21.8368 97.7512 22.7086 97.7512 23.8456C97.7512 25.1344 97.3248 26.0629 96.472 26.6314C95.5837 27.2379 94.4289 27.5411 93.0076 27.5411H84.0002V31.5208H93.9668C95.6723 31.5208 96.9692 31.843 97.8575 32.4873C98.7103 33.1695 99.1367 34.0791 99.1367 35.2162C99.1367 36.429 98.7103 37.3576 97.8575 38.0019C96.9692 38.6462 95.7789 38.9684 94.2865 38.9684H84V43.1755H94.2333C95.6191 43.1755 96.8983 43.005 98.0708 42.6638C99.2789 42.2848 100.256 41.811 101.002 41.2425C101.748 40.674 102.388 39.897 102.921 38.9116C103.347 38.0019 103.561 36.9406 103.561 35.7278C103.561 34.7803 103.454 33.9653 103.241 33.2831ZM129.304 34.9889C128.629 36.7324 127.705 38.1726 126.533 39.3097C125.325 40.5225 123.903 41.4701 122.269 42.1523C120.634 42.8346 118.804 43.1757 116.779 43.1757H110.863V38.8549H116.726C118.076 38.8549 119.302 38.6275 120.403 38.1727C121.469 37.7179 122.393 37.0735 123.175 36.2397C123.957 35.4058 124.561 34.4204 124.987 33.2833C125.413 32.1463 125.627 30.8955 125.627 29.531C125.627 28.2044 125.413 26.9726 124.987 25.8356C124.561 24.6606 123.957 23.6941 123.175 22.9361C122.464 22.1401 121.54 21.4959 120.403 21.003C119.266 20.5482 118.04 20.3208 116.726 20.3208H110.863V16H116.779C118.662 16 120.474 16.3601 122.216 17.0802C123.85 17.7245 125.289 18.691 126.533 19.9797C127.741 21.1547 128.665 22.595 129.304 24.3005C129.979 26.0441 130.317 27.8254 130.317 29.6447C130.317 31.6157 129.979 33.397 129.304 34.9889ZM171.729 20.5481H179.777V16.1135H159.204V20.5481H171.729ZM167.253 24.9828H171.73V43.1757H167.253V24.9828ZM187.293 16.1134H206.267V20.4342H187.293V16.1134ZM187.293 38.8546H206.213V43.1754H187.293V38.8546ZM187.293 27.3704H204.401V31.6344H187.293V27.3704ZM232.223 43.1754H236.7V23.22L232.223 30.2129V43.1754ZM236.7 16.1134H231.904L224.069 29.0762L216.288 16.1134H211.491V43.1757H215.968V23.9596L223.963 36.7514H224.123L231.104 25.7221C231.14 25.5705 233.005 22.3671 236.7 16.1134ZM260.525 21.4577C260.063 20.3964 259.423 19.4489 258.606 18.615C257.753 17.8191 256.741 17.1937 255.568 16.7389C254.289 16.322 252.939 16.1135 251.517 16.1135H241.551V20.3775H251.145C252.744 20.3775 254.076 20.7944 255.142 21.6283C256.137 22.4243 256.635 23.6371 256.635 25.2669C256.635 26.7451 256.155 27.939 255.196 28.8486C254.165 29.7204 252.815 30.1563 251.145 30.1563H241.551V43.1758H245.975V34.4774H250.985C252.3 34.4774 253.632 34.269 254.982 33.852C256.226 33.4351 257.292 32.8477 258.18 32.0897C259.104 31.3317 259.832 30.3651 260.365 29.1902C260.898 28.0531 261.165 26.7266 261.165 25.2104C261.165 23.7702 260.951 22.519 260.525 21.4577ZM269.799 16.1134H274.169V38.8545H287.494V43.1753H269.798L269.799 16.1134ZM313.237 43.1754H318.034L308.759 16.0564H303.909L309.292 32.2597L313.237 43.1754ZM293.623 43.1754H298.313L303.856 28.7347L301.564 22.2534L293.623 43.1754ZM335.462 20.5481H343.51V16.1135H322.937V20.5481H335.462ZM330.985 24.9828H335.462V43.1757H330.985V24.9828ZM351.025 16.1134H370V20.4342H351.025V16.1134ZM351.025 38.8546H369.946V43.1754H351.025V38.8546ZM351.025 27.3704H368.134V31.6344H351.025V27.3704Z" fill="url(#paint2_linear_938_100)"/>
<defs>
<linearGradient id="paint0_linear_938_100" x1="15.3767" y1="30" x2="61" y2="30" gradientUnits="userSpaceOnUse">
<stop stop-color="#FFB80C"/>
<stop offset="0.52" stop-color="#FBBBC3"/>
<stop offset="1" stop-color="#4691F9"/>
</linearGradient>
<linearGradient id="paint1_linear_938_100" x1="0" y1="30" x2="45.5844" y2="30" gradientUnits="userSpaceOnUse">
<stop stop-color="#FFB80C"/>
<stop offset="0.52" stop-color="#FBBBC3"/>
<stop offset="1" stop-color="#4691F9"/>
</linearGradient>
<linearGradient id="paint2_linear_938_100" x1="84" y1="16" x2="370" y2="16" gradientUnits="userSpaceOnUse">
<stop stop-color="#905E26"/>
<stop offset="0.5" stop-color="#F5EC9B"/>
<stop offset="1" stop-color="#905E26"/>
</linearGradient>
</defs>
</svg>
